HIERARCHY
ROOT Hips
{
	OFFSET -224.689499 91.882057 -431.625488
	CHANNELS 6 Xposition Yposition Zposition Xrotation Yrotation Zrotation
	JOINT LeftUpLeg
	{
		OFFSET 0.103456 1.857840 10.548509
		CHANNELS 3 Xrotation Yrotation Zrotation
		JOINT LeftLeg
		{
			OFFSET 43.500000 -0.000042 0.000010
			CHANNELS 3 Xrotation Yrotation Zrotation
			JOINT LeftFoot
			{
				OFFSET 42.372192 0.000019 0.000000
				CHANNELS 3 Xrotation Yrotation Zrotation
				JOINT LeftToe
				{
					OFFSET 17.299999 -0.000000 0.000003
					CHANNELS 3 Xrotation Yrotation Zrotation
					End Site
					{
						OFFSET 0.000000 0.000000 0.000000
					}
				}
			}
		}
	}
	JOINT RightUpLeg
	{
		OFFSET 0.103456 1.857823 -10.548508
		CHANNELS 3 Xrotation Yrotation Zrotation
		JOINT RightLeg
		{
			OFFSET 43.500042 -0.000027 0.000004
			CHANNELS 3 Xrotation Yrotation Zrotation
			JOINT RightFoot
			{
				OFFSET 42.372261 0.000000 0.000010
				CHANNELS 3 Xrotation Yrotation Zrotation
				JOINT RightToe
				{
					OFFSET 17.299994 -0.000006 0.000017
					CHANNELS 3 Xrotation Yrotation Zrotation
					End Site
					{
						OFFSET 0.000000 0.000000 0.000000
					}
				}
			}
		}
	}
	JOINT Spine
	{
		OFFSET 6.901967 -2.603732 -0.000003
		CHANNELS 3 Xrotation Yrotation Zrotation
		JOINT Spine1
		{
			OFFSET 12.588099 0.000010 0.000008
			CHANNELS 3 Xrotation Yrotation Zrotation
			JOINT Spine2
			{
				OFFSET 12.343201 -0.000018 -0.000005
				CHANNELS 3 Xrotation Yrotation Zrotation
				JOINT Neck
				{
					OFFSET 25.832890 0.000023 0.000007
					CHANNELS 3 Xrotation Yrotation Zrotation
					JOINT Head
					{
						OFFSET 11.766609 -0.000008 -0.000006
						CHANNELS 3 Xrotation Yrotation Zrotation
						End Site
						{
							OFFSET 0.000000 0.000000 0.000000
						}
					}
				}
				JOINT LeftShoulder
				{
					OFFSET 19.745909 -1.480347 6.000101
					CHANNELS 3 Xrotation Yrotation Zrotation
					JOINT LeftArm
					{
						OFFSET 11.284133 0.000018 -0.000020
						CHANNELS 3 Xrotation Yrotation Zrotation
						JOINT LeftForeArm
						{
							OFFSET 33.000050 -0.000013 0.000019
							CHANNELS 3 Xrotation Yrotation Zrotation
							JOINT LeftHand
							{
								OFFSET 25.200005 0.000032 0.000011
								CHANNELS 3 Xrotation Yrotation Zrotation
								End Site
								{
									OFFSET 0.000000 0.000000 0.000000
								}
							}
						}
					}
				}
				JOINT RightShoulder
				{
					OFFSET 19.746101 -1.480358 -6.000078
					CHANNELS 3 Xrotation Yrotation Zrotation
					JOINT RightArm
					{
						OFFSET 11.284140 -0.000000 -0.000001
						CHANNELS 3 Xrotation Yrotation Zrotation
						JOINT RightForeArm
						{
							OFFSET 33.000103 0.000016 -0.000001
							CHANNELS 3 Xrotation Yrotation Zrotation
							JOINT RightHand
							{
								OFFSET 25.199762 0.000123 0.000432
								CHANNELS 3 Xrotation Yrotation Zrotation
								End Site
								{
									OFFSET 0.000000 0.000000 0.000000
								}
							}
						}
					}
				}
			}
		}
	}
}
MOTION
Frames: 12
Frame Time: 0.033333
-220.786499 90.325699 -400.530914 -1.612825 73.360803 87.377772 -171.431605 -2.318342 -158.332126 -5.696809 7.160405 -50.715545 -6.367894 -3.711392 70.118756 -0.001134 0.002879 21.454551 166.072030 -1.375004 -176.618647 10.769448 0.777653 -19.443700 7.010298 -3.383687 81.028767 0.001122 -0.002902 21.454557 1.350384 0.662866 8.687080 2.768178 1.174778 7.349819 2.767595 1.176274 7.031694 8.353033 3.876170 6.498995 8.876564 -2.576364 -20.394893 8.435953 73.594449 175.869435 43.731647 46.750878 -51.308485 -8.679381 -14.705157 -35.794045 24.872221 -2.374060 7.903750 -8.086037 -74.698626 175.325071 -50.570658 -33.890441 -52.605223 9.603773 14.576027 -38.981419 -15.577472 -3.172421 6.956865 
-220.833801 90.629387 -399.423187 -4.475381 73.174099 90.500940 -172.975466 -1.013058 -159.228952 -7.317193 7.067012 -41.240056 -7.065550 -3.011777 69.549791 -0.001133 0.002877 21.454553 166.479143 -0.383166 -177.014331 10.835849 0.803487 -18.755504 7.064649 -3.093356 80.995530 0.001120 -0.002896 21.454558 1.448029 0.532029 8.673602 2.948762 0.902632 7.325916 2.948319 0.904203 7.007769 8.948423 4.098718 6.381505 9.508885 -3.133440 -20.239402 8.338298 73.538263 175.876862 43.695092 46.044707 -51.286313 -8.104673 -14.646417 -34.065939 24.352832 -2.284760 8.222076 -8.094208 -74.781712 175.276898 -49.959235 -33.926499 -52.417607 9.295322 14.468962 -38.265987 -14.277237 -3.026890 7.116495 
-220.959900 90.950974 -398.284698 -6.880730 73.020060 92.970389 -174.387340 -0.159606 -160.812908 -7.337764 4.639272 -31.931251 -6.064862 -3.077055 69.946059 -0.001130 0.002880 21.454551 167.153112 0.457316 -177.768995 11.071886 0.757490 -17.898071 7.242828 -2.656589 80.925686 0.001122 -0.002906 21.454562 1.509258 0.416825 8.699256 3.058099 0.666677 7.380243 3.057756 0.668295 7.062093 9.381317 4.378105 6.353928 9.996825 -3.454468 -20.088105 8.254132 73.601370 175.820558 44.418253 44.748647 -51.787501 -7.624888 -14.699547 -32.391443 23.562460 -1.978914 8.703015 -7.992064 -74.999791 175.123347 -49.670504 -33.780942 -52.108660 9.125809 14.385998 -37.912643 -12.870953 -2.727505 7.238424 
-221.151001 91.122147 -397.117096 -8.195166 73.185961 94.214379 -175.348022 0.521332 -162.697347 -6.315566 1.932872 -23.820067 -4.689696 -3.294415 68.194875 -0.001131 0.002872 21.454551 167.404184 1.050762 -178.718076 11.271520 0.759273 -17.380099 7.378633 -2.174314 81.168182 0.001122 -0.002903 21.454558 1.480530 0.351245 8.727708 2.993390 0.539689 7.438856 2.993107 0.541276 7.120720 9.667436 4.860687 6.551466 10.399528 -3.684519 -19.853305 8.178475 73.900939 175.632471 44.389030 44.452765 -51.742366 -6.944653 -14.328686 -30.720825 24.134646 -1.500619 8.800674 -7.914491 -75.260735 174.947758 -49.591748 -33.453668 -51.868513 8.948819 14.199425 -37.741008 -11.614568 -2.587691 7.402835 
-221.409897 91.057747 -395.886810 -7.881783 73.852931 93.628718 -175.868846 1.041128 -164.184160 -6.056218 0.443318 -18.958537 -4.435259 -4.555301 64.803956 -0.001131 0.002882 21.454551 167.220566 1.236829 -179.777531 11.474356 0.684995 -17.642853 7.483790 -1.506793 81.857029 0.001120 -0.002896 21.454557 1.355242 0.370679 8.768596 2.745189 0.593063 7.520021 2.744897 0.594545 7.201893 9.864362 5.700496 6.862674 10.822996 -4.103076 -19.380428 7.932206 74.297961 175.346128 44.176479 44.506177 -51.243570 -6.513167 -14.055773 -29.656883 25.686753 -0.863177 8.595798 -8.073151 -75.438937 174.866668 -49.674274 -32.752794 -51.861687 8.667824 13.816018 -37.641896 -10.175090 -2.405900 7.650322 
-221.735992 90.822838 -394.608612 -6.299457 74.567649 91.643225 -175.193036 1.762862 -165.098291 -5.636450 0.146909 -17.750366 -4.195669 -4.739367 63.429334 -0.001131 0.002877 21.454551 166.993366 1.049809 179.259444 11.650053 0.369980 -18.667382 7.575759 -0.808108 82.903513 0.001119 -0.002893 21.454553 1.193044 0.423495 8.792664 2.427045 0.716548 7.567061 2.426680 0.717880 7.248934 10.153707 6.821868 7.458128 11.436000 -4.827637 -18.818046 7.814339 74.670035 175.101336 44.370814 44.125872 -50.838393 -6.300856 -13.929104 -29.098684 27.154711 -0.436822 8.409811 -8.234822 -75.509221 174.852440 -49.982389 -31.688084 -52.042734 8.356606 13.334856 -37.651006 -7.960435 -2.157730 7.967974 
-222.096207 90.605080 -393.367096 -4.400262 74.928587 89.458476 -174.453021 2.092691 -165.556132 -4.844717 0.212186 -18.813578 -3.287915 -0.459488 64.930747 -0.001129 0.002872 21.454551 166.632643 0.753647 178.632607 11.539156 -0.083339 -20.042462 7.482594 -0.015044 84.003444 0.001122 -0.002904 21.454558 1.060933 0.460420 8.747962 2.167659 0.803659 7.477166 2.167270 0.804859 7.159048 10.733212 8.236818 8.288391 12.472531 -6.249628 -18.020216 7.951036 74.797397 175.053856 44.629613 43.672620 -50.451274 -6.268314 -13.909306 -29.012557 28.059116 0.125347 8.346071 -8.484128 -75.637482 174.815073 -50.792377 -30.079204 -52.582035 8.154117 12.881550 -37.979303 -5.190188 -1.725954 8.368224 
-222.408493 90.529297 -392.158813 -3.709390 74.554630 88.511649 -174.206163 2.389826 -166.564318 -4.508130 0.741160 -18.954007 -2.960264 2.631231 65.577021 -0.001133 0.002882 21.454553 166.017851 0.889864 178.425639 10.868068 -0.494461 -21.685543 7.034004 0.592955 84.838467 0.001122 -0.002905 21.454558 1.025609 0.395702 8.680583 2.090550 0.677110 7.343731 2.090207 0.678282 7.025616 11.756730 9.796124 9.182501 14.050810 -8.036681 -17.000458 8.208286 74.772308 175.123273 44.350883 43.940956 -49.670855 -6.427487 -14.007271 -29.428886 28.368513 1.142749 8.351645 -8.585064 -75.752353 174.757214 -51.794936 -28.229254 -53.183797 8.223824 12.557808 -38.986711 -3.882137 -1.449005 8.484630 
-222.661102 90.555878 -391.035095 -4.127617 73.641850 88.557641 -175.074635 2.369580 -167.541188 -5.481528 1.273614 -19.283996 -3.745221 2.177012 66.704037 -0.001129 0.002874 21.454557 165.453147 1.336686 178.933955 9.871096 -1.110138 -24.310053 6.431497 1.017651 84.869839 0.001119 -0.002897 21.454558 1.056990 0.227033 8.668317 2.134668 0.336833 7.322354 2.134496 0.337999 7.004229 13.231028 11.117049 10.055176 16.026368 -9.839658 -16.203746 8.467320 74.531143 175.325983 43.539761 44.370652 -48.570661 -6.646985 -14.101624 -30.060221 27.523622 1.802761 8.426173 -8.495213 -75.743146 174.747158 -52.558364 -26.467536 -53.849134 8.447278 12.274616 -40.468159 -4.463474 -1.173020 8.129976 
-222.875900 90.501717 -389.946198 -5.175115 73.007062 88.962701 -177.061657 1.866766 -168.385555 -7.185222 0.687271 -20.301223 -4.737392 2.040995 67.859775 -0.001134 0.002882 21.454551 164.225005 1.853673 -179.438741 8.387708 -2.519282 -29.112028 5.746857 1.705998 83.964116 0.001120 -0.002895 21.454555 1.048652 -0.037006 8.773958 2.089091 -0.187303 7.538436 2.089175 -0.186144 7.220325 14.758939 12.188563 10.784761 17.965277 -11.487691 -15.720439 8.461362 74.152438 175.552348 42.266400 44.479258 -47.212508 -6.826845 -14.238088 -30.463964 25.237154 1.611160 8.106975 -8.279806 -75.449280 174.899277 -53.165319 -24.389754 -54.847128 8.680715 12.043828 -41.873833 -4.746877 -0.708529 7.626544 
-223.066498 90.324707 -389.043701 -6.879463 72.633155 90.269701 -178.055566 1.876591 -168.781977 -8.135972 0.239482 -21.439711 -5.238749 2.020061 68.996336 -0.001129 0.002874 21.454553 163.091430 2.574049 -176.131653 6.986442 -3.804869 -36.086363 5.303221 1.739939 81.676860 0.001117 -0.002898 21.454557 1.060940 -0.360133 8.862496 2.079353 -0.831899 7.721321 2.079745 -0.830744 7.403216 15.995292 12.868661 11.329716 19.507001 -12.641223 -15.191186 8.403298 74.288916 175.457710 41.190808 44.873875 -46.302420 -6.963126 -14.341010 -30.763998 20.103854 1.351104 7.843964 -8.190027 -75.624292 174.769973 -53.786160 -23.626090 -56.236494 9.117476 11.946570 -43.616711 -5.108969 -0.758658 7.303505 
-223.171097 90.027649 -388.313599 -9.169172 72.281925 92.475203 -178.687964 2.521552 -168.626031 -8.707283 0.421058 -22.680397 -5.623373 1.791182 70.139360 -0.001131 0.002876 21.454553 162.064755 3.705671 -171.210304 5.929544 -4.413721 -44.703420 4.996713 0.998087 77.859710 0.001120 -0.002899 21.454558 1.120792 -0.704718 8.932715 2.163198 -1.524642 7.868639 2.163922 -1.523461 7.550521 16.954118 12.779368 11.470009 20.490793 -13.235582 -14.865238 8.195963 74.480530 175.297138 39.845094 45.560930 -45.283647 -7.281844 -14.488953 -31.606398 12.807216 2.249896 7.806228 -8.222387 -76.320246 174.311624 -54.300811 -23.898695 -57.610840 9.781380 11.690839 -46.491060 -5.929169 -1.088729 7.340381 
